<?xml version="1.0" encoding="UTF-8"?>
<svg xmlns="http://www.w3.org/2000/svg" viewBox="0 0 500 500" width="500" height="500">
<path d="M128.15 36.28C150.08 34.91 172.33 35.95 194.29 35.93C236.76 35.88 279.22 35.9 321.69 35.93C356.5 35.96 392.11 31.93 421.53 54.07C440.13 68.06 453.95 88.38 458.82 111.21C461.01 121.44 460.79 132.26 460.82 142.69C460.86 155.17 460.83 167.66 460.83 180.14C460.8 223.06 460.83 265.98 460.83 308.9C460.83 323.06 460.81 337.21 460.82 351.37C460.82 358.6 461.37 366.08 460.71 373.29C457.94 403.57 445.39 430.2 419.67 447.73C389.84 468.06 356.16 463.88 321.69 463.87C274.35 463.85 227.02 463.83 179.68 463.87C155.94 463.89 130.83 466.12 107.62 460.6C87.73 455.87 70.72 442.16 58.09 426.61C47.84 414 41.01 397.18 39.21 381.05C37.91 369.45 39.02 357.08 39.04 345.41C39.09 320.31 39.07 295.2 39.03 270.09C38.98 235.84 39.01 201.6 39.03 167.35C39.03 147.86 37.06 127.12 41.23 108.07C41.83 105.33 43.2 102.67 44.07 100.03C55.89 64.11 90.75 38.62 128.15 36.28ZM234.1 137.86C235.34 142.81 239.57 145.76 243.69 148.17C243.66 159.13 243.64 170.09 243.62 181.05C238.72 181.7 233.48 181.18 228.54 181.17C218.8 181.15 209.06 181.22 199.32 181.19C193.33 181.17 185.94 180.16 180.23 182.13C173.57 182.34 166.65 185.13 160.66 187.84C142.34 196.11 128.89 214.41 125.13 234.02C123.55 242.25 124.08 250.8 124.1 259.13C124.13 269.94 124.09 280.75 124.12 291.55C124.14 298.08 123.61 304.84 124.45 311.33C126.44 326.58 133.94 340.99 145.19 351.39C149.61 355.49 155.57 360.54 161.47 362.15C164.17 365.21 179.01 367.6 183.33 367.94C195.55 368.93 208.07 368.23 220.32 368.2C229.69 368.17 239.55 369.07 248.86 368.07C270.62 368.05 292.39 368.03 314.16 368C344.39 368.69 372 341.29 374.74 311.87C375.96 300.98 375.26 289.72 375.21 278.77C375.16 266.76 375.62 254.68 375.07 242.69C374.67 233.83 372.06 218.99 365.78 212.25C362.89 205.69 356.89 200.27 351.44 195.84C334.69 182.24 317.43 181.26 296.58 181.21C290.49 181.2 284.13 180.69 278.08 181.31C273.46 180.97 258.64 182.42 255.57 180.59C254.38 173.19 255.39 164.82 255.41 157.31C255.42 154.99 254.61 150.75 255.74 148.68C257.03 146.31 263.09 145.57 265 139.33C270.3 132.65 265.08 121.32 258.5 117.53C248.68 111.87 237.25 117.47 233.82 127.62C232.58 131.27 232.94 134.24 234.1 137.86ZM274.89 200.54C278.33 201.08 282.11 200.71 285.62 200.71C299.81 200.74 315.47 198.63 328.82 204.31C333.91 206.47 338.79 209.84 342.77 213.62C344.86 215.61 346.23 218.58 348.42 220.36C348.57 220.59 348.71 220.83 348.85 221.07C349.6 222.4 350.34 223.74 351.09 225.08C351.73 226.29 352.37 227.51 353.02 228.73C353.29 229.68 353.56 230.64 353.83 231.6C356.11 242.48 355.92 253.04 355.92 264.16C355.92 277.69 356.23 291.26 355.91 304.79C355.84 307.34 355.13 309.79 355.1 312.32C351.59 328.24 341.5 339.17 326.99 345.98C322.48 346.81 318.15 348.36 313.47 348.72C294.01 350.22 274.24 347.35 254.79 348.93C237.94 347.98 220.77 348.84 203.88 348.86C197.58 348.87 191 349.4 184.72 348.7C180.74 348.25 176.93 346.87 173.06 346.19C160.46 343 148.83 329.72 145.26 317.55C142.52 308.21 143.24 298.43 143.21 288.81C143.18 278.77 143.17 268.72 143.21 258.68C143.29 237.71 144.11 223.13 161.65 209.37C167.42 204.84 174.12 203.57 180.76 201.06C212.14 200.89 243.51 200.71 274.89 200.54ZM116.35 238.13C110.04 236.51 102.02 244.07 98.83 248.84C94.78 254.89 95.23 262.2 95.24 269.18C95.25 278.73 93.61 289.78 97.41 298.73C99.65 304 110.32 314.41 116.35 311.54C116.35 287.07 116.35 262.6 116.35 238.13ZM385.39 311.91C387.93 311.91 390.43 310.51 392.53 309.18C405.02 301.27 405.22 287.03 404.09 273.52C404.58 268.37 405.1 261.27 403.85 256.22C401.71 247.6 393.04 237.38 383.33 237.97C383.33 262.63 383.33 287.29 383.33 311.94C384.02 311.93 384.7 311.92 385.39 311.91ZM194.39 245.36C184.72 247.32 178.64 253.55 174.8 262.25C173.52 265.15 172.61 270.47 174.34 273.38C176.19 276.5 180.95 276.38 183.06 273.68C184.57 271.74 183.85 269.17 184.51 266.92C186.35 260.65 191.29 256.4 197.95 256.13C204.47 255.87 209.95 260.51 211.86 266.46C212.59 268.7 212.02 271.6 213.34 273.64C215.06 276.27 219.37 276.29 221.51 274.25C224.79 271.1 222.85 264.33 221.14 260.84C216.37 251.07 206.07 243 194.39 245.36ZM297.58 245.38C287.83 247.1 278.65 254.55 276.77 264.61C276.24 267.47 275.36 271.1 277.17 273.7C279.12 276.49 283.78 276.27 285.74 273.64C287.41 271.4 286.58 268.62 287.35 266.09C289.18 260.14 294.92 256.01 301.14 256.1C307.94 256.2 313.01 260.88 314.8 267.18C315.41 269.31 314.8 271.68 316.09 273.63C317.82 276.22 321.73 276.2 323.96 274.42C328.17 271.05 325.08 263.83 323.35 259.96C319.1 250.45 308.41 243.47 297.58 245.38ZM224.04 296.04C222.65 296.31 221.73 297.24 220.97 298.37C217.83 303.1 224.63 309.24 228.25 311.69C240.95 320.28 257.21 321.04 270.06 312.29C273.28 310.1 278.89 305.9 279.16 301.6C279.41 297.38 275.14 294.83 271.35 296.2C268.83 297.11 266.91 301.1 264.7 302.82C260.64 305.97 255.95 307.18 250.91 307.69C245.19 308.26 239.06 306.07 234.52 302.72C230.84 299.99 229.4 295.02 224.04 296.04Z" fill="#0f1219" fill-rule="evenodd" stroke="#0f1219" stroke-width="0.25" stroke-linejoin="round"/>
<path d="M265 139.33C264.57 138.38 264.9 138.58 264.16 138.9C262.57 140.18 262.25 141.13 261.19 142.66C259.76 144.71 257.05 145.69 255.02 146.91C251.63 153.65 253.77 162.03 252.28 168.95C251.87 166.88 251.76 167.11 250.46 165.75C250.15 166.51 249.85 167.28 249.54 168.04C249.32 167.35 249.09 166.67 248.86 165.98C248.02 167.43 247.18 168.87 246.35 170.32C245.54 168.7 246.11 168.1 246.13 166.44C246.15 164.34 245.59 149.6 245.23 148.65C244.5 146.68 241.43 145.29 239.78 144.24C237.41 142.73 235.62 139.27 234.56 136.76C234.41 137.13 234.26 137.49 234.1 137.86C232.94 134.24 232.58 131.27 233.82 127.62C237.25 117.47 248.68 111.87 258.5 117.53C265.08 121.32 270.3 132.65 265 139.33ZM180.23 182.13C180.35 182.41 180.47 182.68 180.59 182.96C189.81 181.34 200.03 182.29 209.36 182.64C213.57 182.8 217.84 182.55 222.05 182.87C223.22 182.96 224.22 183.77 225.33 183.82C227.1 183.9 228.78 183.43 230.59 183.79C229.83 183.94 229.07 184.09 228.31 184.25C229.45 184.32 230.59 184.4 231.74 184.47C232.34 185.24 232.95 186 233.56 186.76C230.49 187.14 227.42 187.52 224.35 187.9C224.22 188.58 224.1 189.27 223.97 189.95C222.63 189.72 222.57 189.68 221.69 190.87C220.62 191.02 219.56 191.17 218.49 191.32C216.74 193.66 219.59 193.54 220.09 195.21C219.03 195.51 217.96 195.81 216.89 196.12C217.38 197.67 219.71 197.63 220.78 198.63C209.13 198.54 190.21 198.11 179.22 200.6C179.74 200.75 180.25 200.9 180.76 201.06C174.12 203.57 167.42 204.84 161.65 209.37C144.11 223.13 143.29 237.71 143.21 258.68C143.17 268.72 143.18 278.77 143.21 288.81C143.24 298.43 142.52 308.21 145.26 317.55C148.83 329.72 160.46 343 173.06 346.19C172.83 346.47 172.6 346.75 172.37 347.03C173.5 347.59 173.96 347.86 173.29 348.86C175.72 348.86 178.16 348.86 180.59 348.86C181.2 349.47 181.81 350.08 182.42 350.68C181.51 350.53 180.59 350.38 179.68 350.23C180.61 351.16 181.78 352.32 183.33 351.6C184.07 353.01 184.83 352.9 186.3 353.2C183.33 354.19 180.37 355.18 177.4 356.16C176.79 355.4 176.18 354.64 175.57 353.88C173.36 353.96 171.16 354.03 168.95 354.11C170.02 354.57 171.08 355.02 172.15 355.48C171 356.16 169.86 356.85 168.72 357.53C165.82 357.53 164.91 357.86 163.24 355.71C161.08 356.74 160.78 355.87 159.59 354.34C159.08 354.79 158.57 355.25 158.07 355.71C156.98 355.63 155.89 355.56 154.79 355.48C155.69 356.06 155.52 356.09 154.79 356.85C155.78 357.08 156.77 357.31 157.76 357.53C157.86 357.23 157.97 356.93 158.07 356.62C158.57 356.47 159.08 356.32 159.59 356.16C161.21 359.25 167.03 359.53 170.01 358.36C172.62 357.34 172.96 355.73 176.26 356.39C176.96 359.93 175.68 359.89 172.6 360.5C173.06 361.26 173.52 362.02 173.97 362.79C171.99 363.09 170.02 363.39 168.04 363.7C166.47 362.07 165.72 360.9 163.24 360.73C164.68 362.17 163.02 361.27 161.47 362.15C155.57 360.54 149.61 355.49 145.19 351.39C133.94 340.99 126.44 326.58 124.45 311.33C123.61 304.84 124.14 298.08 124.12 291.55C124.09 280.75 124.13 269.94 124.1 259.13C124.08 250.8 123.55 242.25 125.13 234.02C128.89 214.41 142.34 196.11 160.66 187.84C166.65 185.13 173.57 182.34 180.23 182.13ZM287.67 183.18C296.12 183.31 304.57 183.43 313.01 183.56C310.2 183.94 307.38 184.32 304.57 184.7C307.23 187.26 313.77 184.95 316.67 187.67C314.16 187.67 313.85 189.32 311.56 189.87C309.9 190.27 308.07 189.85 306.39 190.18C308.3 190.87 310.2 191.55 312.1 192.24C309.4 194.77 298.72 194.61 295.66 192.69C294.05 194.24 293.19 193.18 291.55 192.69C285.95 194.89 286.21 194.98 279.98 194.98C279.35 194.29 278.72 193.61 278.08 192.92C279.41 191.65 280.17 192.62 280.14 190.41C278.51 190.39 277.2 190.36 276.71 188.81C278.46 188.13 280.21 187.44 281.96 186.76C282.27 186 282.57 185.24 282.88 184.47C283.64 184.17 284.4 183.87 285.16 183.56C286.29 183.98 286.88 184.18 287.67 183.18ZM303.42 189.04C302.64 188.43 290.95 187.87 290.64 190.87C293.48 190.02 296.3 190.78 298.86 189.5C300.08 189.8 301.29 190.11 302.51 190.41C302.82 189.95 303.12 189.5 303.42 189.04ZM271.69 197.03C270.27 198.39 267.65 196.95 265.75 196.58C267.53 196.22 270.46 195.85 271.69 197.03ZM272.15 198.55C272.22 198.27 272.3 198 272.37 197.72C272.68 197.87 272.98 198.02 273.29 198.17C273.67 198 274.05 197.82 274.43 197.64C282.02 198.15 289.55 196.77 296.66 196.72C299.81 196.69 302.78 195.16 303.42 198.63C293 198.6 282.57 198.58 272.15 198.55ZM116.35 238.13C116.35 262.6 116.35 287.07 116.35 311.54C110.32 314.41 99.65 304 97.41 298.73C93.61 289.78 95.25 278.73 95.24 269.18C95.23 262.2 94.78 254.89 98.83 248.84C102.02 244.07 110.04 236.51 116.35 238.13ZM169.63 350.37C168.65 350.25 167.66 350.12 166.67 350C167.5 350.84 168.34 351.67 169.18 352.51C170.77 351.75 171.75 352.36 172.15 350.37C171.31 350.37 170.47 350.37 169.63 350.37ZM190.41 353.2C189.17 354.73 187.69 354.49 186.3 355.94C184.8 354.31 188.36 351.6 190.41 353.2ZM183.33 358.45C184.13 358.9 184.92 359.36 185.72 359.82C185.72 360.81 185.72 361.8 185.72 362.79C185.23 363.47 184.74 364.16 184.25 364.84C181.45 363.44 177.63 363.25 176.26 360.5C178.61 359.82 180.97 359.13 183.33 358.45Z" fill="#b5f850" fill-rule="evenodd" stroke="#b5f850" stroke-width="0.25" stroke-linejoin="round"/>
<path d="M358.83 220.09C359.01 220.93 359.18 221.77 359.36 222.6C358.9 223.36 358.45 224.12 357.99 224.89C357.99 226.1 357.99 227.32 357.99 228.54C358.75 229.15 359.51 229.76 360.27 230.37C359.74 231.35 359.21 232.34 358.68 233.33C357.56 232.42 356.44 231.51 355.33 230.59C355.33 229.68 355.33 228.77 355.33 227.85C355.76 227.17 356.19 226.48 356.62 225.8C356.24 225.27 355.86 224.73 355.48 224.2C354.67 224.66 353.86 225.11 353.04 225.57C353.78 223.06 354.52 220.55 355.25 218.04C356.43 219.22 357.15 219.19 358.83 220.09ZM366.14 218.04C367.04 219.39 366.11 220.47 366.77 221.59C366.98 221.95 367.75 221.8 367.84 222.15C367.97 222.64 367.27 223.02 367.12 223.52C367.66 223.14 368.19 222.75 368.72 222.37C368.92 223.98 367.56 223.97 367.21 225.43C367.03 226.19 367.78 226.8 367.48 227.53C367.36 227.82 366.7 228.14 366.44 228.31C364.86 226.29 366.07 222.12 363.47 222.6C364.09 221.36 364.76 220.66 366.14 221C366.14 220.02 366.14 219.03 366.14 218.04ZM404.09 273.52C405.22 287.03 405.02 301.27 392.53 309.18C390.43 310.51 387.93 311.91 385.39 311.91C381.13 303.08 386.19 281.43 385.39 270.55C387.61 270.1 387.97 269.68 388.36 272.08C388.89 270.96 389.42 269.84 389.95 268.72C391.4 267.6 391.8 267.2 392.92 265.75C394.91 265.33 395.23 263.76 396.35 262.33C397.18 261.99 398.02 261.66 398.86 261.32C399.44 260.44 400.02 259.56 400.59 258.68C399.2 257.43 397.72 254.57 400.68 254.34C400.42 257.5 401.93 259.76 402.51 262.7C403.9 269.7 403.08 277.72 403.42 284.86C403.65 281.08 403.87 277.3 404.09 273.52ZM374.74 311.87C372 341.29 344.39 368.69 314.16 368C314.92 367.79 315.68 367.57 316.44 367.35C308.45 367.12 300.46 366.89 292.47 366.67C294.05 365.08 293.79 361.75 296.48 361.87C295.22 360.5 295.89 358.86 297.95 359.95C298.02 358.77 298.1 357.58 298.17 356.39C298.86 355.86 299.54 355.33 300.23 354.79C298.98 354.27 298.62 355.12 298.17 353.65C299.52 352.37 301.48 353.08 303.26 352.74C299.65 351.4 309.71 351.56 310.74 351.34C316.7 350.08 322.59 349.21 328.08 346.55C327.72 346.36 327.35 346.17 326.99 345.98C341.5 339.17 351.59 328.24 355.1 312.32C355.23 313.3 355.35 314.27 355.48 315.25C357.27 312.36 356.68 308.75 356.86 305.5C357.22 298.72 357.74 291.87 358.07 285.16C358.18 282.91 358.68 274.95 359.82 273.74C360.05 275.49 360.27 277.25 360.5 279C361.29 277.8 362.39 276.1 363.7 275.92C364.31 274.54 364.67 274.17 365.98 273.52C366.13 274.4 366.29 275.28 366.44 276.17C367.54 274.6 368.65 273.03 369.75 271.46C370.32 268.8 370.89 266.13 371.46 263.47C375.99 278.72 373.63 296.99 373.62 313.01C373.99 312.63 374.36 312.25 374.74 311.87ZM264 351.6C263.95 351.75 263.9 351.9 263.85 352.05C260.97 352.31 258.79 353.08 255.94 352.51C255.71 354.87 255.48 357.23 255.25 359.59C254.11 359.97 252.97 360.35 251.83 360.73C250.25 359.7 249.9 358.86 249.54 357.08C248.63 357.38 247.72 357.69 246.8 357.99C246.42 356.7 246.04 355.4 245.66 354.11C243.51 353.82 242.47 356.98 241.32 358.45C240.49 358.22 239.65 357.99 238.81 357.76C239.73 357.15 240.64 356.54 241.55 355.94C241.63 355.25 241.7 354.57 241.78 353.88C236.67 353.54 239.07 354.67 237.56 355.62C235.95 356.63 235.84 355.85 235.84 357.99C233.4 357.8 233.93 354.86 233.79 352.74C240 349.63 249.02 351.14 255.94 351.14C258.28 351.14 262.03 350.47 264 351.6ZM251.37 352.51C250.23 353.2 249.09 353.88 247.95 354.57C248.88 355.45 249.85 354.55 250.23 354.44C251.14 354.44 252.05 354.44 252.97 354.44C252.44 353.8 251.9 353.16 251.37 352.51ZM247.72 359.36C247.79 359.89 247.87 360.43 247.95 360.96C248.63 360.58 249.32 360.2 250 359.82C250 360.47 250 361.12 250 361.77C248.71 361.77 247.41 361.77 246.12 361.77C246.65 360.97 247.18 360.16 247.72 359.36Z" fill="#2cd1c1" fill-rule="evenodd" stroke="#2cd1c1" stroke-width="0.25" stroke-linejoin="round"/>
<path d="M278.08 181.31C284.13 180.69 290.49 181.2 296.58 181.21C317.43 181.26 334.69 182.24 351.44 195.84C356.89 200.27 362.89 205.69 365.78 212.25C364.78 212.41 363.78 212.56 362.79 212.72C361.25 214.98 359.2 217.26 358.83 220.09C357.15 219.19 356.43 219.22 355.25 218.04C354.52 220.55 353.78 223.06 353.04 225.57C352.94 225.72 352.84 225.88 352.74 226.03C352.19 225.71 351.64 225.39 351.09 225.08C350.34 223.74 349.6 222.4 348.85 221.07C349.39 221.5 349.92 221.94 350.46 222.37C350.77 220.74 350.96 221.14 352.05 220.32C352.78 218.79 352.09 217.89 351.37 216.44C349.57 216.56 349.55 217.29 348.4 218.49C348.41 219.11 348.41 219.73 348.42 220.36C346.23 218.58 344.86 215.61 342.77 213.62C338.79 209.84 333.91 206.47 328.82 204.31C315.47 198.63 299.81 200.74 285.62 200.71C282.11 200.71 278.33 201.08 274.89 200.54C273.34 200.29 271.8 200.03 270.26 199.77C274.16 199.62 278.05 199.47 281.95 199.32C278.68 199.06 275.41 198.81 272.15 198.55C282.57 198.58 293 198.6 303.42 198.63C302.78 195.16 299.81 196.69 296.66 196.72C289.55 196.77 282.02 198.15 274.43 197.64C274.51 197.36 274.58 197.08 274.66 196.8C275.57 196.8 276.48 196.8 277.4 196.8C277.7 196.35 278.01 195.89 278.31 195.43C278.77 195.43 279.22 195.43 279.68 195.43C279.78 195.28 279.88 195.13 279.98 194.98C286.21 194.98 285.95 194.89 291.55 192.69C293.19 193.18 294.05 194.24 295.66 192.69C298.72 194.61 309.4 194.77 312.1 192.24C310.2 191.55 308.3 190.87 306.39 190.18C308.07 189.85 309.9 190.27 311.56 189.87C313.85 189.32 314.16 187.67 316.67 187.67C313.77 184.95 307.23 187.26 304.57 184.7C307.38 184.32 310.2 183.94 313.01 183.56C304.57 183.43 296.12 183.31 287.67 183.18C286.11 182.52 288.46 182.55 289.24 182.42C283.54 182.27 277.85 182.12 272.15 181.96C274.12 181.75 276.1 181.53 278.08 181.31ZM303.42 189.04C303.12 189.5 302.82 189.95 302.51 190.41C301.29 190.11 300.08 189.8 298.86 189.5C296.3 190.78 293.48 190.02 290.64 190.87C290.95 187.87 302.64 188.43 303.42 189.04ZM358.68 206.85C357.99 207.12 357.3 207.94 356.75 208.12C355.28 208.59 355.43 206.71 354.34 208.9C354.87 209.13 355.4 209.36 355.94 209.59C357.36 208.69 358.68 208.69 358.68 206.85ZM357.31 211.78C356.7 212.97 356.09 214.15 355.48 215.34C356.09 215.41 356.7 215.48 357.31 215.55C358.44 214.12 358.43 213.2 357.31 211.78ZM355.33 227.85C355.33 228.77 355.33 229.68 355.33 230.59C355.23 230.75 355.12 230.9 355.02 231.05C354.66 229.92 354.6 229.83 353.42 229.91C353.73 230.37 354.03 230.82 354.34 231.28C354.17 231.38 354 231.49 353.83 231.6C353.56 230.64 353.29 229.68 353.02 228.73C353.69 227.83 354.35 226.93 355.02 226.03C355.12 226.64 355.23 227.25 355.33 227.85ZM173.06 346.19C176.93 346.87 180.74 348.25 184.72 348.7C191 349.4 197.58 348.87 203.88 348.86C220.77 348.84 237.94 347.98 254.79 348.93C257.61 349.12 260.43 349.3 263.24 349.49C262.95 349.7 262.22 349.67 262.3 350.03C262.34 350.19 262.76 350.21 262.8 350.21C265.65 350.63 268.58 349.59 271.23 350.91C268.82 351.14 266.41 351.37 264 351.6C262.03 350.47 258.28 351.14 255.94 351.14C249.02 351.14 240 349.63 233.79 352.74C233.93 354.86 233.4 357.8 235.84 357.99C235.84 355.85 235.95 356.63 237.56 355.62C239.07 354.67 236.67 353.54 241.78 353.88C241.7 354.57 241.63 355.25 241.55 355.94C240.64 356.54 239.73 357.15 238.81 357.76C239.65 357.99 240.49 358.22 241.32 358.45C242.47 356.98 243.51 353.82 245.66 354.11C246.04 355.4 246.42 356.7 246.8 357.99C247.72 357.69 248.63 357.38 249.54 357.08C249.9 358.86 250.25 359.7 251.83 360.73C252.97 360.35 254.11 359.97 255.25 359.59C255.48 357.23 255.71 354.87 255.94 352.51C258.79 353.08 260.97 352.31 263.85 352.05C264.68 353.63 263.17 354.86 262.1 355.94C261.16 358.16 260.97 360.53 257.99 361.42C258.6 362.02 259.21 362.63 259.82 363.24C258.3 363.7 256.77 364.16 255.25 364.61C256.77 364.92 258.3 365.22 259.82 365.53C258.99 368.17 250.97 367.13 248.63 366.67C248.71 367.14 248.78 367.6 248.86 368.07C239.55 369.07 229.69 368.17 220.32 368.2C208.07 368.23 195.55 368.93 183.33 367.94C179.01 367.6 164.17 365.21 161.47 362.15C163.02 361.27 164.68 362.17 163.24 360.73C165.72 360.9 166.47 362.07 168.04 363.7C170.02 363.39 171.99 363.09 173.97 362.79C173.52 362.02 173.06 361.26 172.6 360.5C175.68 359.89 176.96 359.93 176.26 356.39C172.96 355.73 172.62 357.34 170.01 358.36C167.03 359.53 161.21 359.25 159.59 356.16C159.08 356.32 158.57 356.47 158.07 356.62C158.07 356.32 158.07 356.01 158.07 355.71C158.57 355.25 159.08 354.79 159.59 354.34C160.78 355.87 161.08 356.74 163.24 355.71C164.91 357.86 165.82 357.53 168.72 357.53C169.86 356.85 171 356.16 172.15 355.48C171.08 355.02 170.02 354.57 168.95 354.11C171.16 354.03 173.36 353.96 175.57 353.88C176.18 354.64 176.79 355.4 177.4 356.16C180.37 355.18 183.33 354.19 186.3 353.2C184.83 352.9 184.07 353.01 183.33 351.6C181.78 352.32 180.61 351.16 179.68 350.23C180.59 350.38 181.51 350.53 182.42 350.68C181.81 350.08 181.2 349.47 180.59 348.86C178.16 348.86 175.72 348.86 173.29 348.86C173.96 347.86 173.5 347.59 172.37 347.03C172.6 346.75 172.83 346.47 173.06 346.19ZM169.63 350.37C170.47 350.37 171.31 350.37 172.15 350.37C171.75 352.36 170.77 351.75 169.18 352.51C168.34 351.67 167.5 350.84 166.67 350C167.66 350.12 168.65 350.25 169.63 350.37ZM190.41 353.2C188.36 351.6 184.8 354.31 186.3 355.94C187.69 354.49 189.17 354.73 190.41 353.2ZM251.37 352.51C251.9 353.16 252.44 353.8 252.97 354.44C252.05 354.44 251.14 354.44 250.23 354.44C249.85 354.55 248.88 355.45 247.95 354.57C249.09 353.88 250.23 353.2 251.37 352.51ZM183.33 358.45C180.97 359.13 178.61 359.82 176.26 360.5C177.63 363.25 181.45 363.44 184.25 364.84C184.74 364.16 185.23 363.47 185.72 362.79C185.72 361.8 185.72 360.81 185.72 359.82C184.92 359.36 184.13 358.9 183.33 358.45ZM247.72 359.36C247.18 360.16 246.65 360.97 246.12 361.77C247.41 361.77 248.71 361.77 250 361.77C250 361.12 250 360.47 250 359.82C249.32 360.2 248.63 360.58 247.95 360.96C247.87 360.43 247.79 359.89 247.72 359.36Z" fill="#75e289" fill-rule="evenodd" stroke="#75e289" stroke-width="0.25" stroke-linejoin="round"/>
<path d="M358.68 206.85C358.68 208.69 357.36 208.69 355.94 209.59C355.4 209.36 354.87 209.13 354.34 208.9C355.43 206.71 355.28 208.59 356.75 208.12C357.3 207.94 357.99 207.12 358.68 206.85ZM357.31 211.78C358.43 213.2 358.44 214.12 357.31 215.55C356.7 215.48 356.09 215.41 355.48 215.34C356.09 214.15 356.7 212.97 357.31 211.78ZM365.78 212.25C372.06 218.99 374.67 233.83 375.07 242.69C375.62 254.68 375.16 266.76 375.21 278.77C375.26 289.72 375.96 300.98 374.74 311.87C374.36 312.25 373.99 312.63 373.62 313.01C373.63 296.99 375.99 278.72 371.46 263.47C370.89 266.13 370.32 268.8 369.75 271.46C368.65 273.03 367.54 274.6 366.44 276.17C366.29 275.28 366.13 274.4 365.98 273.52C364.67 274.17 364.31 274.54 363.7 275.92C362.39 276.1 361.29 277.8 360.5 279C360.27 277.25 360.05 275.49 359.82 273.74C358.68 274.95 358.18 282.91 358.07 285.16C357.74 291.87 357.22 298.72 356.86 305.5C356.68 308.75 357.27 312.36 355.48 315.25C355.35 314.27 355.23 313.3 355.1 312.32C355.13 309.79 355.84 307.34 355.91 304.79C356.23 291.26 355.92 277.69 355.92 264.16C355.92 253.04 356.11 242.48 353.83 231.6C354 231.49 354.17 231.38 354.34 231.28C354.03 230.82 353.73 230.37 353.42 229.91C354.6 229.83 354.66 229.92 355.02 231.05C355.12 230.9 355.23 230.75 355.33 230.59C356.44 231.51 357.56 232.42 358.68 233.33C359.21 232.34 359.74 231.35 360.27 230.37C359.51 229.76 358.75 229.15 357.99 228.54C357.99 227.32 357.99 226.1 357.99 224.89C358.45 224.12 358.9 223.36 359.36 222.6C359.18 221.77 359.01 220.93 358.83 220.09C359.2 217.26 361.25 214.98 362.79 212.72C363.78 212.56 364.78 212.41 365.78 212.25ZM348.85 221.07C348.71 220.83 348.57 220.59 348.42 220.36C348.41 219.73 348.41 219.11 348.4 218.49C349.55 217.29 349.57 216.56 351.37 216.44C352.09 217.89 352.78 218.79 352.05 220.32C350.96 221.14 350.77 220.74 350.46 222.37C349.92 221.94 349.39 221.5 348.85 221.07ZM366.14 218.04C366.14 219.03 366.14 220.02 366.14 221C364.76 220.66 364.09 221.36 363.47 222.6C366.07 222.12 364.86 226.29 366.44 228.31C366.7 228.14 367.36 227.82 367.48 227.53C367.78 226.8 367.03 226.19 367.21 225.43C367.56 223.97 368.92 223.98 368.72 222.37C368.19 222.75 367.66 223.14 367.12 223.52C367.27 223.02 367.97 222.64 367.84 222.15C367.75 221.8 366.98 221.95 366.77 221.59C366.11 220.47 367.04 219.39 366.14 218.04ZM355.33 227.85C355.23 227.25 355.12 226.64 355.02 226.03C354.35 226.93 353.69 227.83 353.02 228.73C352.37 227.51 351.73 226.29 351.09 225.08C351.64 225.39 352.19 225.71 352.74 226.03C352.84 225.88 352.94 225.72 353.04 225.57C353.86 225.11 354.67 224.66 355.48 224.2C355.86 224.73 356.24 225.27 356.62 225.8C356.19 226.48 355.76 227.17 355.33 227.85ZM404.09 273.52C403.87 277.3 403.65 281.08 403.42 284.86C403.08 277.72 403.9 269.7 402.51 262.7C401.93 259.76 400.42 257.5 400.68 254.34C397.72 254.57 399.2 257.43 400.59 258.68C400.02 259.56 399.44 260.44 398.86 261.32C398.02 261.66 397.18 261.99 396.35 262.33C395.23 263.76 394.91 265.33 392.92 265.75C391.8 267.2 391.4 267.6 389.95 268.72C389.42 269.84 388.89 270.96 388.36 272.08C387.97 269.68 387.61 270.1 385.39 270.55C386.19 281.43 381.13 303.08 385.39 311.91C384.7 311.92 384.02 311.93 383.33 311.94C383.33 287.29 383.33 262.63 383.33 237.97C393.04 237.38 401.71 247.6 403.85 256.22C405.1 261.27 404.58 268.37 404.09 273.52ZM326.99 345.98C327.35 346.17 327.72 346.36 328.08 346.55C322.59 349.21 316.7 350.08 310.74 351.34C309.71 351.56 299.65 351.4 303.26 352.74C301.48 353.08 299.52 352.37 298.17 353.65C298.62 355.12 298.98 354.27 300.23 354.79C299.54 355.33 298.86 355.86 298.17 356.39C298.1 357.58 298.02 358.77 297.95 359.95C295.89 358.86 295.22 360.5 296.48 361.87C293.79 361.75 294.05 365.08 292.47 366.67C300.46 366.89 308.45 367.12 316.44 367.35C315.68 367.57 314.92 367.79 314.16 368C292.39 368.03 270.62 368.05 248.86 368.07C248.78 367.6 248.71 367.14 248.63 366.67C250.97 367.13 258.99 368.17 259.82 365.53C258.3 365.22 256.77 364.92 255.25 364.61C256.77 364.16 258.3 363.7 259.82 363.24C259.21 362.63 258.6 362.02 257.99 361.42C260.97 360.53 261.16 358.16 262.1 355.94C263.17 354.86 264.68 353.63 263.85 352.05C263.9 351.9 263.95 351.75 264 351.6C266.41 351.37 268.82 351.14 271.23 350.91C268.58 349.59 265.65 350.63 262.8 350.21C262.76 350.21 262.34 350.19 262.3 350.03C262.22 349.67 262.95 349.7 263.24 349.49C260.43 349.3 257.61 349.12 254.79 348.93C274.24 347.35 294.01 350.22 313.47 348.72C318.15 348.36 322.48 346.81 326.99 345.98Z" fill="#49d3aa" fill-rule="evenodd" stroke="#49d3aa" stroke-width="0.25" stroke-linejoin="round"/>
<path d="M194.39 245.36C206.07 243 216.37 251.07 221.14 260.84C222.85 264.33 224.79 271.1 221.51 274.25C219.37 276.29 215.06 276.27 213.34 273.64C212.02 271.6 212.59 268.7 211.86 266.46C209.95 260.51 204.47 255.87 197.95 256.13C191.29 256.4 186.35 260.65 184.51 266.92C183.85 269.17 184.57 271.74 183.06 273.68C180.95 276.38 176.19 276.5 174.34 273.38C172.61 270.47 173.52 265.15 174.8 262.25C178.64 253.55 184.72 247.32 194.39 245.36ZM297.58 245.38C308.41 243.47 319.1 250.45 323.35 259.96C325.08 263.83 328.17 271.05 323.96 274.42C321.73 276.2 317.82 276.22 316.09 273.63C314.8 271.68 315.41 269.31 314.8 267.18C313.01 260.88 307.94 256.2 301.14 256.1C294.92 256.01 289.18 260.14 287.35 266.09C286.58 268.62 287.41 271.4 285.74 273.64C283.78 276.27 279.12 276.49 277.17 273.7C275.36 271.1 276.24 267.47 276.77 264.61C278.65 254.55 287.83 247.1 297.58 245.38ZM224.04 296.04C229.4 295.02 230.84 299.99 234.52 302.72C239.06 306.07 245.19 308.26 250.91 307.69C255.95 307.18 260.64 305.97 264.7 302.82C266.91 301.1 268.83 297.11 271.35 296.2C275.14 294.83 279.41 297.38 279.16 301.6C278.89 305.9 273.28 310.1 270.06 312.29C257.21 321.04 240.95 320.28 228.25 311.69C224.63 309.24 217.83 303.1 220.97 298.37C221.73 297.24 222.65 296.31 224.04 296.04Z" fill="#ffffff" fill-rule="evenodd" stroke="#ffffff" stroke-width="0.25" stroke-linejoin="round"/>
<path d="M265 139.33C263.09 145.57 257.03 146.31 255.74 148.68C254.61 150.75 255.42 154.99 255.41 157.31C255.39 164.82 254.38 173.19 255.57 180.59C258.64 182.42 273.46 180.97 278.08 181.31C276.1 181.53 274.12 181.75 272.15 181.96C277.85 182.12 283.54 182.27 289.24 182.42C288.46 182.55 286.11 182.52 287.67 183.18C286.88 184.18 286.29 183.98 285.16 183.56C284.4 183.87 283.64 184.17 282.88 184.47C282.57 185.24 282.27 186 281.96 186.76C280.21 187.44 278.46 188.13 276.71 188.81C277.2 190.36 278.51 190.39 280.14 190.41C280.17 192.62 279.41 191.65 278.08 192.92C278.72 193.61 279.35 194.29 279.98 194.98C279.88 195.13 279.78 195.28 279.68 195.43C279.22 195.43 278.77 195.43 278.31 195.43C278.01 195.89 277.7 196.35 277.4 196.8C276.48 196.8 275.57 196.8 274.66 196.8C274.58 197.08 274.51 197.36 274.43 197.64C274.05 197.82 273.67 198 273.29 198.17C272.98 198.02 272.68 197.87 272.37 197.72C272.3 198 272.22 198.27 272.15 198.55C275.41 198.81 278.68 199.06 281.95 199.32C278.05 199.47 274.16 199.62 270.26 199.77C271.8 200.03 273.34 200.29 274.89 200.54C243.51 200.71 212.14 200.89 180.76 201.06C180.25 200.9 179.74 200.75 179.22 200.6C190.21 198.11 209.13 198.54 220.78 198.63C219.71 197.63 217.38 197.67 216.89 196.12C217.96 195.81 219.03 195.51 220.09 195.21C219.59 193.54 216.74 193.66 218.49 191.32C219.56 191.17 220.62 191.02 221.69 190.87C222.57 189.68 222.63 189.72 223.97 189.95C224.1 189.27 224.22 188.58 224.35 187.9C227.42 187.52 230.49 187.14 233.56 186.76C232.95 186 232.34 185.24 231.74 184.47C230.59 184.4 229.45 184.32 228.31 184.25C229.07 184.09 229.83 183.94 230.59 183.79C228.78 183.43 227.1 183.9 225.33 183.82C224.22 183.77 223.22 182.96 222.05 182.87C217.84 182.55 213.57 182.8 209.36 182.64C200.03 182.29 189.81 181.34 180.59 182.96C180.47 182.68 180.35 182.41 180.23 182.13C185.94 180.16 193.33 181.17 199.32 181.19C209.06 181.22 218.8 181.15 228.54 181.17C233.48 181.18 238.72 181.7 243.62 181.05C243.64 170.09 243.66 159.13 243.69 148.17C239.57 145.76 235.34 142.81 234.1 137.86C234.26 137.49 234.41 137.13 234.56 136.76C235.62 139.27 237.41 142.73 239.78 144.24C241.43 145.29 244.5 146.68 245.23 148.65C245.59 149.6 246.15 164.34 246.13 166.44C246.11 168.1 245.54 168.7 246.35 170.32C247.18 168.87 248.02 167.43 248.86 165.98C249.09 166.67 249.32 167.35 249.54 168.04C249.85 167.28 250.15 166.51 250.46 165.75C251.76 167.11 251.87 166.88 252.28 168.95C253.77 162.03 251.63 153.65 255.02 146.91C257.05 145.69 259.76 144.71 261.19 142.66C262.25 141.13 262.57 140.18 264.16 138.9C264.9 138.58 264.57 138.38 265 139.33ZM271.69 197.03C270.46 195.85 267.53 196.22 265.75 196.58C267.65 196.95 270.27 198.39 271.69 197.03ZM158.07 355.71C158.07 356.01 158.07 356.32 158.07 356.62C157.97 356.93 157.86 357.23 157.76 357.53C156.77 357.31 155.78 357.08 154.79 356.85C155.52 356.09 155.69 356.06 154.79 355.48C155.89 355.56 156.98 355.63 158.07 355.71Z" fill="#9beb68" fill-rule="evenodd" stroke="#9beb68" stroke-width="0.25" stroke-linejoin="round"/>
</svg>